<?xml version="1.0" encoding="UTF-8" standalone="no"?>
<!DOCTYPE svg PUBLIC "-//W3C//DTD SVG 1.1//EN"
 "http://www.w3.org/Graphics/SVG/1.1/DTD/svg11.dtd">
<!-- Generated by graphviz version 2.40.1 (20161225.0304)
 -->
<!-- Title: %3 Pages: 1 -->
<svg width="361pt" height="163pt"
 viewBox="0.00 0.00 361.00 163.00" xmlns="http://www.w3.org/2000/svg" xmlns:xlink="http://www.w3.org/1999/xlink">
<g id="graph0" class="graph" transform="scale(1 1) rotate(0) translate(4 159)">
<title>%3</title>
<polygon fill="#ffffff" stroke="transparent" points="-4,4 -4,-159 357,-159 357,4 -4,4"/>
<g id="clust1" class="cluster">
<title>cluster_A</title>
<polygon fill="none" stroke="#000000" points="8,-8 8,-60 344,-60 344,-8 8,-8"/>
</g>
<g id="clust2" class="cluster">
<title>cluster_B</title>
<polygon fill="none" stroke="#000000" points="131,-95 131,-147 339,-147 339,-95 131,-95"/>
</g>
<!-- Arduino -->
<g id="node1" class="node">
<title>Arduino</title>
<ellipse fill="none" stroke="#000000" cx="288" cy="-34" rx="48.1917" ry="18"/>
<text text-anchor="middle" x="288" y="-30.3" font-family="Times,serif" font-size="14.00" fill="#000000">Arduino</text>
</g>
<!-- STM32 -->
<g id="node2" class="node">
<title>STM32</title>
<ellipse fill="none" stroke="#000000" cx="178" cy="-34" rx="44.393" ry="18"/>
<text text-anchor="middle" x="178" y="-30.3" font-family="Times,serif" font-size="14.00" fill="#000000">STM32</text>
</g>
<!-- MSP430 -->
<g id="node3" class="node">
<title>MSP430</title>
<ellipse fill="none" stroke="#000000" cx="66" cy="-34" rx="50.0912" ry="18"/>
<text text-anchor="middle" x="66" y="-30.3" font-family="Times,serif" font-size="14.00" fill="#000000">MSP430</text>
</g>
<!-- Ethernet -->
<g id="node4" class="node">
<title>Ethernet</title>
<ellipse fill="none" stroke="#000000" cx="191" cy="-121" rx="51.9908" ry="18"/>
<text text-anchor="middle" x="191" y="-117.3" font-family="Times,serif" font-size="14.00" fill="#000000">Ethernet</text>
</g>
<!-- Ethernet&#45;&gt;Arduino -->
<g id="edge1" class="edge">
<title>Ethernet&#45;&gt;Arduino</title>
<path fill="none" stroke="#000000" d="M195.8369,-102.6801C199.4088,-92.0675 205.2024,-79.0575 214,-70 216.85,-67.0658 231.9595,-59.5523 247.7895,-52.1438"/>
<polygon fill="#000000" stroke="#000000" points="249.5026,-55.2076 257.106,-47.8293 246.561,-48.8557 249.5026,-55.2076"/>
<text text-anchor="middle" x="250.5" y="-73.8" font-family="Times,serif" font-size="14.00" fill="#000000">Ethercard</text>
</g>
<!-- RFID -->
<g id="node5" class="node">
<title>RFID</title>
<ellipse fill="none" stroke="#000000" cx="296" cy="-121" rx="35.194" ry="18"/>
<text text-anchor="middle" x="296" y="-117.3" font-family="Times,serif" font-size="14.00" fill="#000000">RFID</text>
</g>
<!-- RFID&#45;&gt;Arduino -->
<g id="edge2" class="edge">
<title>RFID&#45;&gt;Arduino</title>
<path fill="none" stroke="#000000" d="M294.3424,-102.9735C293.259,-91.1918 291.8217,-75.5607 290.5892,-62.1581"/>
<polygon fill="#000000" stroke="#000000" points="294.0565,-61.6408 289.6555,-52.0034 287.086,-62.2819 294.0565,-61.6408"/>
<text text-anchor="middle" x="322.5" y="-73.8" font-family="Times,serif" font-size="14.00" fill="#000000">mfrc522</text>
</g>
</g>
</svg>
