<?xml version="1.0" encoding="UTF-8" standalone="no"?>
<!DOCTYPE svg PUBLIC "-//W3C//DTD SVG 1.1//EN"
 "http://www.w3.org/Graphics/SVG/1.1/DTD/svg11.dtd">
<!-- Generated by graphviz version 2.40.1 (20161225.0304)
 -->
<!-- Title: %3 Pages: 1 -->
<svg width="393pt" height="163pt"
 viewBox="0.00 0.00 392.99 163.00" xmlns="http://www.w3.org/2000/svg" xmlns:xlink="http://www.w3.org/1999/xlink">
<g id="graph0" class="graph" transform="scale(1 1) rotate(0) translate(4 159)">
<title>%3</title>
<polygon fill="#ffffff" stroke="transparent" points="-4,4 -4,-159 388.9942,-159 388.9942,4 -4,4"/>
<g id="clust1" class="cluster">
<title>cluster_A</title>
<polygon fill="none" stroke="#000000" points="20.9942,-8 20.9942,-60 356.9942,-60 356.9942,-8 20.9942,-8"/>
</g>
<g id="clust2" class="cluster">
<title>cluster_B</title>
<polygon fill="none" stroke="#000000" points="70.9942,-95 70.9942,-147 278.9942,-147 278.9942,-95 70.9942,-95"/>
</g>
<!-- Arduino -->
<g id="node1" class="node">
<title>Arduino</title>
<ellipse fill="none" stroke="#000000" cx="76.9942" cy="-34" rx="48.1917" ry="18"/>
<text text-anchor="middle" x="76.9942" y="-30.3" font-family="Times,serif" font-size="14.00" fill="#000000">Arduino</text>
</g>
<!-- STM32 -->
<g id="node2" class="node">
<title>STM32</title>
<ellipse fill="none" stroke="#000000" cx="186.9942" cy="-34" rx="44.393" ry="18"/>
<text text-anchor="middle" x="186.9942" y="-30.3" font-family="Times,serif" font-size="14.00" fill="#000000">STM32</text>
</g>
<!-- MSP430 -->
<g id="node3" class="node">
<title>MSP430</title>
<ellipse fill="none" stroke="#000000" cx="298.9942" cy="-34" rx="50.0912" ry="18"/>
<text text-anchor="middle" x="298.9942" y="-30.3" font-family="Times,serif" font-size="14.00" fill="#000000">MSP430</text>
</g>
<!-- Ethernet -->
<g id="node4" class="node">
<title>Ethernet</title>
<ellipse fill="none" stroke="#000000" cx="130.9942" cy="-121" rx="51.9908" ry="18"/>
<text text-anchor="middle" x="130.9942" y="-117.3" font-family="Times,serif" font-size="14.00" fill="#000000">Ethernet</text>
</g>
<!-- Ethernet&#45;&gt;Arduino -->
<g id="edge1" class="edge">
<title>Ethernet&#45;&gt;Arduino</title>
<path fill="none" stroke="#000000" d="M83.3707,-113.5995C51.5409,-107.5687 13.7717,-97.9343 3.9942,-85 -7.4861,-69.8132 8.9687,-57.4363 29.1403,-48.6801"/>
<polygon fill="#000000" stroke="#000000" points="30.5906,-51.8698 38.5829,-44.9146 27.9977,-45.3677 30.5906,-51.8698"/>
<text text-anchor="middle" x="41.9942" y="-73.8" font-family="Times,serif" font-size="14.00" fill="#000000">EtherCard</text>
</g>
<!-- Ethernet&#45;&gt;STM32 -->
<g id="edge3" class="edge">
<title>Ethernet&#45;&gt;STM32</title>
<path fill="none" stroke="#000000" d="M111.7049,-103.8121C102.6059,-93.6008 95.2647,-80.6151 102.9942,-70 111.5159,-58.297 120.5719,-65.4243 133.9942,-60 139.4729,-57.7859 145.1721,-55.2503 150.7147,-52.6504"/>
<polygon fill="#000000" stroke="#000000" points="152.3383,-55.7532 159.8278,-48.2594 149.2997,-49.4471 152.3383,-55.7532"/>
<text text-anchor="middle" x="123.4942" y="-73.8" font-family="Times,serif" font-size="14.00" fill="#000000">SDK1</text>
</g>
<!-- Ethernet&#45;&gt;MSP430 -->
<g id="edge5" class="edge">
<title>Ethernet&#45;&gt;MSP430</title>
<path fill="none" stroke="#000000" d="M162.6574,-106.5667C172.0055,-102.5617 182.3245,-98.3872 191.9942,-95 207.6663,-89.5103 213.1861,-92.5149 227.9942,-85 237.5883,-80.1311 238.3448,-76.3985 246.9942,-70 253.3871,-65.2708 260.3245,-60.3362 266.9868,-55.691"/>
<polygon fill="#000000" stroke="#000000" points="268.9831,-58.5659 275.2168,-49.9989 265.0013,-52.8086 268.9831,-58.5659"/>
<text text-anchor="middle" x="267.4942" y="-73.8" font-family="Times,serif" font-size="14.00" fill="#000000">SDK3</text>
</g>
<!-- RFID -->
<g id="node5" class="node">
<title>RFID</title>
<ellipse fill="none" stroke="#000000" cx="235.9942" cy="-121" rx="35.194" ry="18"/>
<text text-anchor="middle" x="235.9942" y="-117.3" font-family="Times,serif" font-size="14.00" fill="#000000">RFID</text>
</g>
<!-- RFID&#45;&gt;Arduino -->
<g id="edge2" class="edge">
<title>RFID&#45;&gt;Arduino</title>
<path fill="none" stroke="#000000" d="M213.5241,-106.8268C206.7255,-102.7843 199.1599,-98.5245 191.9942,-95 181.2558,-89.7183 177.6133,-90.5177 166.9942,-85 156.1648,-79.3731 154.49,-76.2271 143.9942,-70 134.6136,-64.4345 124.3111,-58.7126 114.6583,-53.5146"/>
<polygon fill="#000000" stroke="#000000" points="116.1247,-50.3301 105.6538,-48.7137 112.8313,-56.507 116.1247,-50.3301"/>
<text text-anchor="middle" x="197.4942" y="-73.8" font-family="Times,serif" font-size="14.00" fill="#000000">mfrc522</text>
</g>
<!-- RFID&#45;&gt;STM32 -->
<g id="edge4" class="edge">
<title>RFID&#45;&gt;STM32</title>
<path fill="none" stroke="#000000" d="M263.705,-109.6361C283.4544,-99.9046 304.4721,-85.1062 291.9942,-70 277.0062,-51.8551 262.3115,-67.4709 239.9942,-60 234.2661,-58.0825 228.3664,-55.6698 222.6776,-53.0916"/>
<polygon fill="#000000" stroke="#000000" points="223.9034,-49.7986 213.3705,-48.6546 220.891,-56.1173 223.9034,-49.7986"/>
<text text-anchor="middle" x="316.4942" y="-73.8" font-family="Times,serif" font-size="14.00" fill="#000000">SDK2</text>
</g>
<!-- RFID&#45;&gt;MSP430 -->
<g id="edge6" class="edge">
<title>RFID&#45;&gt;MSP430</title>
<path fill="none" stroke="#000000" d="M268.6105,-114.1596C296.1242,-107.6495 332.3695,-97.0746 340.9942,-85 348.0601,-75.1078 342.0767,-64.6651 332.6378,-55.8232"/>
<polygon fill="#000000" stroke="#000000" points="334.8366,-53.0997 324.9052,-49.4095 330.3677,-58.4876 334.8366,-53.0997"/>
<text text-anchor="middle" x="364.4942" y="-73.8" font-family="Times,serif" font-size="14.00" fill="#000000">SDK4</text>
</g>
</g>
</svg>
