<?xml version="1.0" encoding="UTF-8" standalone="no"?>
<!DOCTYPE svg PUBLIC "-//W3C//DTD SVG 1.1//EN"
 "http://www.w3.org/Graphics/SVG/1.1/DTD/svg11.dtd">
<!-- Generated by graphviz version 2.40.1 (20161225.0304)
 -->
<!-- Title: %3 Pages: 1 -->
<svg width="360pt" height="250pt"
 viewBox="0.00 0.00 360.00 250.00" xmlns="http://www.w3.org/2000/svg" xmlns:xlink="http://www.w3.org/1999/xlink">
<g id="graph0" class="graph" transform="scale(1 1) rotate(0) translate(4 246)">
<title>%3</title>
<polygon fill="#ffffff" stroke="transparent" points="-4,4 -4,-246 356,-246 356,4 -4,4"/>
<g id="clust1" class="cluster">
<title>cluster_A</title>
<polygon fill="none" stroke="#000000" points="8,-8 8,-60 344,-60 344,-8 8,-8"/>
</g>
<g id="clust2" class="cluster">
<title>cluster_B</title>
<polygon fill="none" stroke="#000000" points="62,-182 62,-234 270,-234 270,-182 62,-182"/>
</g>
<!-- Arduino -->
<g id="node1" class="node">
<title>Arduino</title>
<ellipse fill="none" stroke="#000000" cx="64" cy="-34" rx="48.1917" ry="18"/>
<text text-anchor="middle" x="64" y="-30.3" font-family="Times,serif" font-size="14.00" fill="#000000">Arduino</text>
</g>
<!-- STM32 -->
<g id="node2" class="node">
<title>STM32</title>
<ellipse fill="none" stroke="#000000" cx="174" cy="-34" rx="44.393" ry="18"/>
<text text-anchor="middle" x="174" y="-30.3" font-family="Times,serif" font-size="14.00" fill="#000000">STM32</text>
</g>
<!-- MSP430 -->
<g id="node3" class="node">
<title>MSP430</title>
<ellipse fill="none" stroke="#000000" cx="286" cy="-34" rx="50.0912" ry="18"/>
<text text-anchor="middle" x="286" y="-30.3" font-family="Times,serif" font-size="14.00" fill="#000000">MSP430</text>
</g>
<!-- SPI -->
<g id="node4" class="node">
<title>SPI</title>
<ellipse fill="none" stroke="#000000" cx="174" cy="-121" rx="49.2915" ry="18"/>
<text text-anchor="middle" x="174" y="-117.3" font-family="Times,serif" font-size="14.00" fill="#000000">trait Spi</text>
</g>
<!-- SPI&#45;&gt;Arduino -->
<g id="edge3" class="edge">
<title>SPI&#45;&gt;Arduino</title>
<path fill="none" stroke="#000000" d="M153.3098,-104.636C136.1787,-91.0868 111.6534,-71.6895 92.6363,-56.6487"/>
<polygon fill="#000000" stroke="#000000" points="94.6119,-53.7489 84.5974,-50.2907 90.2696,-59.2393 94.6119,-53.7489"/>
<text text-anchor="middle" x="141" y="-73.8" font-family="Times,serif" font-size="14.00" fill="#000000">impl</text>
</g>
<!-- SPI&#45;&gt;STM32 -->
<g id="edge4" class="edge">
<title>SPI&#45;&gt;STM32</title>
<path fill="none" stroke="#000000" d="M174,-102.9735C174,-91.1918 174,-75.5607 174,-62.1581"/>
<polygon fill="#000000" stroke="#000000" points="177.5001,-62.0033 174,-52.0034 170.5001,-62.0034 177.5001,-62.0033"/>
<text text-anchor="middle" x="190" y="-73.8" font-family="Times,serif" font-size="14.00" fill="#000000">impl</text>
</g>
<!-- SPI&#45;&gt;MSP430 -->
<g id="edge5" class="edge">
<title>SPI&#45;&gt;MSP430</title>
<path fill="none" stroke="#000000" d="M195.0663,-104.636C212.4763,-91.1122 237.3866,-71.7622 256.7342,-56.7333"/>
<polygon fill="#000000" stroke="#000000" points="258.8971,-59.4851 264.6473,-50.5865 254.6029,-53.9569 258.8971,-59.4851"/>
<text text-anchor="middle" x="252" y="-73.8" font-family="Times,serif" font-size="14.00" fill="#000000">impl</text>
</g>
<!-- Ethernet -->
<g id="node5" class="node">
<title>Ethernet</title>
<ellipse fill="none" stroke="#000000" cx="122" cy="-208" rx="51.9908" ry="18"/>
<text text-anchor="middle" x="122" y="-204.3" font-family="Times,serif" font-size="14.00" fill="#000000">Ethernet</text>
</g>
<!-- Ethernet&#45;&gt;SPI -->
<g id="edge1" class="edge">
<title>Ethernet&#45;&gt;SPI</title>
<path fill="none" stroke="#000000" d="M115.9144,-189.9835C113.5525,-179.728 112.5525,-166.978 118,-157 121.5792,-150.4441 126.92,-144.9041 132.9049,-140.2847"/>
<polygon fill="#000000" stroke="#000000" points="135.0508,-143.0584 141.3605,-134.5473 131.1204,-137.2659 135.0508,-143.0584"/>
<text text-anchor="middle" x="163.5" y="-160.8" font-family="Times,serif" font-size="14.00" fill="#000000">where S: Spi</text>
</g>
<!-- RFID -->
<g id="node6" class="node">
<title>RFID</title>
<ellipse fill="none" stroke="#000000" cx="227" cy="-208" rx="35.194" ry="18"/>
<text text-anchor="middle" x="227" y="-204.3" font-family="Times,serif" font-size="14.00" fill="#000000">RFID</text>
</g>
<!-- RFID&#45;&gt;SPI -->
<g id="edge2" class="edge">
<title>RFID&#45;&gt;SPI</title>
<path fill="none" stroke="#000000" d="M222.6143,-189.6796C219.6951,-179.5648 215.2372,-167.053 209,-157 206.4351,-152.8659 203.325,-148.8233 200.0293,-145.0287"/>
<polygon fill="#000000" stroke="#000000" points="202.5054,-142.5523 193.119,-137.6385 197.3924,-147.3333 202.5054,-142.5523"/>
<text text-anchor="middle" x="261.5" y="-160.8" font-family="Times,serif" font-size="14.00" fill="#000000">where S: Spi</text>
</g>
</g>
</svg>
